# Blender v3.1.2 OBJ File: ''
# www.blender.org
mtllib pointy finger.mtl
o Cube.005
v 0.865816 0.974324 -0.177568
v 0.552253 0.974324 -0.177568
v 0.865816 0.974324 0.135996
v 0.552253 0.974324 0.135996
v 0.865816 3.166821 -0.177568
v 0.552252 3.166821 -0.177568
v 0.865816 3.166821 0.135996
v 0.552252 3.166821 0.135996
v 0.552253 1.659833 -0.177568
v 0.865816 1.659833 0.135996
v 0.552253 1.659833 0.135996
v 0.865816 1.659833 -0.177568
v 0.709035 0.974324 -0.177568
v 0.709034 3.370584 0.135996
v 0.709035 0.974324 0.135996
v 0.709034 3.370584 -0.177568
v 0.709034 1.659833 -0.177568
v 0.709034 1.659833 0.135996
v 1.000000 1.000000 -0.309152
v 1.000000 -1.000000 -0.309152
v 1.000000 1.000000 0.309152
v 1.000000 -1.000000 0.309152
v -1.000000 1.000000 -0.309152
v -1.000000 -1.000000 -0.309152
v -1.000000 1.000000 0.309152
v -1.000000 -1.000000 0.309152
v -0.587487 0.974324 -0.177568
v -0.901051 0.974324 -0.177568
v -0.587487 0.974324 0.135996
v -0.901051 0.974324 0.135996
v -0.587487 1.994768 -0.177568
v -0.901051 1.994768 -0.177568
v -0.587487 1.994768 0.135996
v -0.901051 1.994768 0.135996
v -0.901051 1.659833 -0.177568
v -0.587487 1.659833 0.135996
v -0.901051 1.659833 0.135996
v -0.587487 1.659833 -0.177568
v -0.901051 1.994768 0.463765
v -0.587487 1.994768 0.463765
v -0.587487 1.659833 0.463765
v -0.901051 1.659833 0.463765
v -0.587487 1.157357 0.135996
v -0.901051 1.157356 0.135996
v -0.587487 1.157357 0.463765
v -0.901051 1.157356 0.463765
v 0.364127 0.974324 -0.177568
v 0.050563 0.974324 -0.177568
v 0.364127 0.974324 0.135996
v 0.050563 0.974324 0.135996
v 0.364127 2.135077 -0.177568
v 0.050563 2.135077 -0.177568
v 0.364127 2.135077 0.135996
v 0.050563 2.135077 0.135996
v 0.050563 1.659833 -0.177568
v 0.364127 1.659833 0.135996
v 0.050563 1.659833 0.135996
v 0.364127 1.659833 -0.177568
v 0.050563 2.135077 0.421537
v 0.364127 2.135077 0.421537
v 0.364127 1.659833 0.421537
v 0.050563 1.659833 0.421537
v 0.364127 1.174801 0.135996
v 0.050563 1.174801 0.135996
v 0.364127 1.174801 0.421537
v 0.050563 1.174801 0.421537
v -0.117316 0.974324 -0.177568
v -0.430879 0.974324 -0.177568
v -0.117316 0.974324 0.135996
v -0.430879 0.974324 0.135996
v -0.117316 2.066265 -0.177568
v -0.430880 2.066265 -0.177568
v -0.117316 2.066265 0.135996
v -0.430880 2.066265 0.135996
v -0.430880 1.659833 -0.177568
v -0.117316 1.659833 0.135996
v -0.430880 1.659833 0.135996
v -0.117316 1.659833 -0.177568
v -0.430880 2.066265 0.392951
v -0.117316 2.066265 0.392951
v -0.117316 1.659833 0.392951
v -0.430880 1.659833 0.392951
v -0.117316 1.151133 0.135996
v -0.430879 1.151133 0.135996
v -0.117316 1.151133 0.392951
v -0.430879 1.151133 0.392951
vt 0.750000 0.500000
vt 0.875000 0.500000
vt 0.875000 0.750000
vt 0.750000 0.750000
vt 0.500000 0.875000
vt 0.625000 0.875000
vt 0.625000 1.000000
vt 0.500000 1.000000
vt 0.500000 0.000000
vt 0.625000 0.000000
vt 0.625000 0.250000
vt 0.500000 0.250000
vt 0.250000 0.500000
vt 0.375000 0.500000
vt 0.375000 0.750000
vt 0.250000 0.750000
vt 0.500000 0.500000
vt 0.625000 0.500000
vt 0.625000 0.750000
vt 0.500000 0.750000
vt 0.500000 0.375000
vt 0.625000 0.375000
vt 0.125000 0.500000
vt 0.125000 0.750000
vt 0.375000 0.875000
vt 0.375000 0.250000
vt 0.375000 0.375000
vt 0.375000 0.000000
vt 0.375000 1.000000
vt 0.625000 0.500000
vt 0.875000 0.500000
vt 0.875000 0.750000
vt 0.625000 0.750000
vt 0.375000 0.750000
vt 0.625000 1.000000
vt 0.375000 1.000000
vt 0.375000 0.000000
vt 0.625000 0.000000
vt 0.625000 0.250000
vt 0.375000 0.250000
vt 0.125000 0.500000
vt 0.375000 0.500000
vt 0.125000 0.750000
vt 0.750000 0.500000
vt 0.875000 0.500000
vt 0.875000 0.750000
vt 0.750000 0.750000
vt 0.750000 0.750000
vt 0.750000 0.750000
vt 0.750000 0.750000
vt 0.375000 0.000000
vt 0.625000 0.000000
vt 0.625000 0.250000
vt 0.375000 0.250000
vt 0.250000 0.500000
vt 0.375000 0.500000
vt 0.375000 0.750000
vt 0.250000 0.750000
vt 0.625000 0.500000
vt 0.625000 0.750000
vt 0.375000 0.375000
vt 0.625000 0.375000
vt 0.125000 0.500000
vt 0.125000 0.750000
vt 0.625000 0.875000
vt 0.375000 0.875000
vt 0.375000 0.875000
vt 0.625000 0.875000
vt 0.625000 1.000000
vt 0.375000 1.000000
vt 0.375000 0.000000
vt 0.625000 0.000000
vt 0.250000 0.750000
vt 0.125000 0.750000
vt 0.875000 0.750000
vt 0.375000 0.875000
vt 0.625000 0.875000
vt 0.625000 0.875000
vt 0.375000 0.875000
vt 0.250000 0.750000
vt 0.250000 0.750000
vt 0.750000 0.500000
vt 0.875000 0.500000
vt 0.875000 0.750000
vt 0.750000 0.750000
vt 0.875000 0.750000
vt 0.750000 0.750000
vt 0.375000 0.000000
vt 0.625000 0.000000
vt 0.625000 0.250000
vt 0.375000 0.250000
vt 0.250000 0.500000
vt 0.375000 0.500000
vt 0.375000 0.750000
vt 0.250000 0.750000
vt 0.625000 0.500000
vt 0.625000 0.750000
vt 0.375000 0.375000
vt 0.625000 0.375000
vt 0.125000 0.500000
vt 0.125000 0.750000
vt 0.625000 0.875000
vt 0.375000 0.875000
vt 0.375000 0.875000
vt 0.625000 0.875000
vt 0.625000 1.000000
vt 0.375000 1.000000
vt 0.250000 0.750000
vt 0.250000 0.750000
vt 0.250000 0.750000
vt 0.375000 0.000000
vt 0.625000 0.000000
vt 0.125000 0.750000
vt 0.375000 0.875000
vt 0.625000 0.875000
vt 0.625000 0.875000
vt 0.375000 0.875000
vt 0.750000 0.750000
vt 0.750000 0.750000
vt 0.750000 0.500000
vt 0.875000 0.500000
vt 0.875000 0.750000
vt 0.750000 0.750000
vt 0.625000 0.875000
vt 0.375000 0.875000
vt 0.375000 0.875000
vt 0.625000 0.875000
vt 0.375000 0.000000
vt 0.625000 0.000000
vt 0.625000 0.250000
vt 0.375000 0.250000
vt 0.250000 0.500000
vt 0.375000 0.500000
vt 0.375000 0.750000
vt 0.250000 0.750000
vt 0.625000 0.500000
vt 0.625000 0.750000
vt 0.375000 0.375000
vt 0.625000 0.375000
vt 0.125000 0.500000
vt 0.125000 0.750000
vt 0.625000 0.875000
vt 0.375000 0.875000
vt 0.625000 1.000000
vt 0.375000 1.000000
vt 0.375000 0.000000
vt 0.625000 0.000000
vt 0.250000 0.750000
vt 0.125000 0.750000
vt 0.875000 0.750000
vt 0.750000 0.750000
vt 0.375000 0.875000
vt 0.625000 0.875000
vt 0.750000 0.750000
vt 0.750000 0.750000
vt 0.250000 0.750000
vt 0.250000 0.750000
vn 1.0000 0.0000 -0.0000
vn 0.0000 0.0000 1.0000
vn 0.7925 0.6098 0.0000
vn -1.0000 -0.0000 0.0000
vn 0.0000 -1.0000 0.0000
vn -0.0000 -0.0000 -1.0000
vn -0.7925 0.6098 0.0000
vn -0.0000 1.0000 0.0000
usemtl Material.001
s off
f 12/1/1 5/2/1 7/3/1 10/4/1
f 18/5/2 10/6/2 7/7/2 14/8/2
f 14/9/3 7/10/3 5/11/3 16/12/3
f 9/13/4 2/14/4 4/15/4 11/16/4
f 13/17/5 1/18/5 3/19/5 15/20/5
f 17/21/6 12/22/6 1/18/6 13/17/6
f 16/12/6 5/11/6 12/22/6 17/21/6
f 6/23/4 9/13/4 11/16/4 8/24/4
f 15/20/2 3/19/2 10/6/2 18/5/2
f 1/18/1 12/1/1 10/4/1 3/19/1
f 4/15/2 15/20/2 18/5/2 11/25/2
f 6/26/6 16/12/6 17/21/6 9/27/6
f 9/27/6 17/21/6 13/17/6 2/14/6
f 2/14/5 13/17/5 15/20/5 4/15/5
f 8/28/7 14/9/7 16/12/7 6/26/7
f 11/25/2 18/5/2 14/8/2 8/29/2
f 19/30/8 23/31/8 25/32/8 21/33/8
f 22/34/2 21/33/2 25/35/2 26/36/2
f 26/37/4 25/38/4 23/39/4 24/40/4
f 24/41/5 20/42/5 22/34/5 26/43/5
f 20/42/1 19/30/1 21/33/1 22/34/1
f 24/40/6 23/39/6 19/30/6 20/42/6
f 38/44/1 31/45/1 33/46/1 36/47/1
f 36/47/1 41/48/1 45/49/1 43/50/1
f 34/51/8 33/52/8 31/53/8 32/54/8
f 35/55/4 28/56/4 30/57/4 37/58/4
f 28/56/5 27/59/5 29/60/5 30/57/5
f 35/61/6 38/62/6 27/59/6 28/56/6
f 32/54/6 31/53/6 38/62/6 35/61/6
f 32/63/4 35/55/4 37/58/4 34/64/4
f 30/57/2 29/60/2 36/65/2 37/66/2
f 27/59/1 38/44/1 36/47/1 29/60/1
f 42/67/2 41/68/2 40/69/2 39/70/2
f 33/52/8 34/51/8 39/71/8 40/72/8
f 34/64/4 37/58/4 42/73/4 39/74/4
f 36/47/1 33/46/1 40/75/1 41/48/1
f 44/76/5 43/77/5 45/78/5 46/79/5
f 37/66/6 36/65/6 43/77/6 44/76/6
f 42/73/4 37/58/4 44/80/4 46/81/4
f 41/68/2 42/67/2 46/79/2 45/78/2
f 58/82/1 51/83/1 53/84/1 56/85/1
f 56/85/1 53/84/1 60/86/1 61/87/1
f 54/88/8 53/89/8 51/90/8 52/91/8
f 55/92/4 48/93/4 50/94/4 57/95/4
f 48/93/5 47/96/5 49/97/5 50/94/5
f 55/98/6 58/99/6 47/96/6 48/93/6
f 52/91/6 51/90/6 58/99/6 55/98/6
f 52/100/4 55/92/4 57/95/4 54/101/4
f 50/94/2 49/97/2 56/102/2 57/103/2
f 47/96/1 58/82/1 56/85/1 49/97/1
f 62/104/2 61/105/2 60/106/2 59/107/2
f 62/108/4 57/95/4 64/109/4 66/110/4
f 53/89/8 54/88/8 59/111/8 60/112/8
f 54/101/4 57/95/4 62/108/4 59/113/4
f 64/114/5 63/115/5 65/116/5 66/117/5
f 57/103/6 56/102/6 63/115/6 64/114/6
f 56/85/1 61/87/1 65/118/1 63/119/1
f 61/105/2 62/104/2 66/117/2 65/116/2
f 78/120/1 71/121/1 73/122/1 76/123/1
f 81/124/2 82/125/2 86/126/2 85/127/2
f 74/128/8 73/129/8 71/130/8 72/131/8
f 75/132/4 68/133/4 70/134/4 77/135/4
f 68/133/5 67/136/5 69/137/5 70/134/5
f 75/138/6 78/139/6 67/136/6 68/133/6
f 72/131/6 71/130/6 78/139/6 75/138/6
f 72/140/4 75/132/4 77/135/4 74/141/4
f 70/134/2 69/137/2 76/142/2 77/143/2
f 67/136/1 78/120/1 76/123/1 69/137/1
f 82/125/2 81/124/2 80/144/2 79/145/2
f 73/129/8 74/128/8 79/146/8 80/147/8
f 74/141/4 77/135/4 82/148/4 79/149/4
f 76/123/1 73/122/1 80/150/1 81/151/1
f 84/152/5 83/153/5 85/127/5 86/126/5
f 76/123/1 81/151/1 85/154/1 83/155/1
f 77/143/6 76/142/6 83/153/6 84/152/6
f 82/148/4 77/135/4 84/156/4 86/157/4
